<svg width="29" height="21" viewBox="0 0 29 21" fill="none" xmlns="http://www.w3.org/2000/svg">
<path d="M13.15 19.9L12.5361 20.6893C12.8375 20.9238 13.2463 20.9661 13.5894 20.7983C13.9324 20.6305 14.15 20.2819 14.15 19.9H13.15ZM1 10.45L0.38606 9.66064C0.142473 9.8501 0 10.1414 0 10.45C0 10.7586 0.142473 11.0499 0.38606 11.2393L1 10.45ZM13.15 1H14.15C14.15 0.618066 13.9324 0.269488 13.5894 0.101685C13.2463 -0.0661183 12.8375 -0.0238369 12.5361 0.210648L13.15 1ZM28 19.9L27.3861 20.6893C27.6875 20.9238 28.0963 20.9661 28.4394 20.7983C28.7824 20.6305 29 20.2819 29 19.9H28ZM15.85 10.45L15.2361 9.66064C14.9925 9.8501 14.85 10.1414 14.85 10.45C14.85 10.7586 14.9925 11.0499 15.2361 11.2393L15.85 10.45ZM28 1H29C29 0.618066 28.7824 0.269488 28.4394 0.101685C28.0963 -0.0661183 27.6875 -0.0238369 27.3861 0.210648L28 1ZM13.7639 19.1106L1.61394 9.66064L0.38606 11.2393L12.5361 20.6893L13.7639 19.1106ZM1.61394 11.2393L13.7639 1.78935L12.5361 0.210648L0.38606 9.66064L1.61394 11.2393ZM12.15 1V19.9H14.15V1H12.15ZM28.6139 19.1106L16.4639 9.66064L15.2361 11.2393L27.3861 20.6893L28.6139 19.1106ZM16.4639 11.2393L28.6139 1.78935L27.3861 0.210648L15.2361 9.66064L16.4639 11.2393ZM27 1V19.9H29V1H27Z" fill="white"/>
</svg>
