<svg width="29" height="21" viewBox="0 0 29 21" fill="none" xmlns="http://www.w3.org/2000/svg">
<path d="M15.85 19.9H14.85C14.85 20.2819 15.0676 20.6305 15.4106 20.7983C15.7537 20.9661 16.1625 20.9238 16.4639 20.6893L15.85 19.9ZM28 10.45L28.6139 11.2393C28.8575 11.0499 29 10.7586 29 10.45C29 10.1414 28.8575 9.8501 28.6139 9.66064L28 10.45ZM15.85 1L16.4639 0.210648C16.1625 -0.0238369 15.7537 -0.0661183 15.4106 0.101685C15.0676 0.269488 14.85 0.618066 14.85 1H15.85ZM1 19.9H0C0 20.2819 0.217552 20.6305 0.560648 20.7983C0.903745 20.9661 1.31246 20.9238 1.61394 20.6893L1 19.9ZM13.15 10.45L13.7639 11.2393C14.0075 11.0499 14.15 10.7586 14.15 10.45C14.15 10.1414 14.0075 9.8501 13.7639 9.66064L13.15 10.45ZM1 1L1.61394 0.210648C1.31246 -0.0238369 0.903745 -0.0661183 0.560648 0.101685C0.217552 0.269488 0 0.618066 0 1H1ZM16.4639 20.6893L28.6139 11.2393L27.3861 9.66064L15.2361 19.1106L16.4639 20.6893ZM28.6139 9.66064L16.4639 0.210648L15.2361 1.78935L27.3861 11.2393L28.6139 9.66064ZM14.85 1V19.9H16.85V1H14.85ZM1.61394 20.6893L13.7639 11.2393L12.5361 9.66064L0.38606 19.1106L1.61394 20.6893ZM13.7639 9.66064L1.61394 0.210648L0.38606 1.78935L12.5361 11.2393L13.7639 9.66064ZM0 1V19.9H2V1H0Z" fill="white"/>
</svg>
