<svg width="12" height="12" viewBox="0 0 12 12" fill="none" xmlns="http://www.w3.org/2000/svg">
<path d="M0.401221 9.1079C0.401221 9.43927 0.66985 9.7079 1.00122 9.7079C1.33259 9.7079 1.60122 9.43927 1.60122 9.1079H0.401221ZM1.00122 5.77457H0.401221H1.00122ZM6.00122 0.774567V1.37457V0.774567ZM11.0012 5.77457H11.6012H11.0012ZM10.4012 9.1079C10.4012 9.43927 10.6699 9.7079 11.0012 9.7079C11.3326 9.7079 11.6012 9.43927 11.6012 9.1079H10.4012ZM8.22344 9.66346H8.82344H8.22344ZM8.22344 7.99679H8.82344H8.22344ZM9.33455 6.88568V7.48568V6.88568ZM11.0012 6.88568H11.6012C11.6012 6.55431 11.3326 6.28568 11.0012 6.28568V6.88568ZM1.00122 9.66346H0.401221H1.00122ZM3.779 9.66346H4.379H3.779ZM3.779 7.99679H4.379H3.779ZM1.00122 6.88568V6.28568C0.66985 6.28568 0.401221 6.55431 0.401221 6.88568H1.00122ZM1.60122 9.1079V5.77457H0.401221V9.1079H1.60122ZM1.60122 5.77457C1.60122 4.60761 2.06479 3.48846 2.88995 2.6633L2.04142 1.81477C0.991219 2.86497 0.401221 4.28935 0.401221 5.77457L1.60122 5.77457ZM2.88995 2.6633C3.71511 1.83814 4.83427 1.37457 6.00122 1.37457V0.174567C4.51601 0.174567 3.09163 0.764565 2.04142 1.81477L2.88995 2.6633ZM6.00122 1.37457C7.16817 1.37457 8.28733 1.83814 9.11249 2.6633L9.96102 1.81477C8.91081 0.764565 7.48643 0.174567 6.00122 0.174567V1.37457ZM9.11249 2.6633C9.93765 3.48846 10.4012 4.60761 10.4012 5.77457L11.6012 5.77457C11.6012 4.28935 11.0112 2.86497 9.96102 1.81477L9.11249 2.6633ZM10.4012 5.77457V9.1079H11.6012V5.77457H10.4012ZM10.4012 9.66346C10.4012 9.79901 10.3474 9.92901 10.2515 10.0249L11.1 10.8734C11.4209 10.5525 11.6012 10.1173 11.6012 9.66346H10.4012ZM10.2515 10.0249C10.1557 10.1207 10.0257 10.1746 9.89011 10.1746V11.3746C10.3439 11.3746 10.7792 11.1943 11.1 10.8734L10.2515 10.0249ZM9.89011 10.1746H9.33455V11.3746H9.89011V10.1746ZM9.33455 10.1746C9.199 10.1746 9.069 10.1207 8.97314 10.0249L8.12462 10.8734C8.44551 11.1943 8.88074 11.3746 9.33455 11.3746V10.1746ZM8.97314 10.0249C8.87729 9.92901 8.82344 9.79901 8.82344 9.66346H7.62344C7.62344 10.1173 7.80372 10.5525 8.12462 10.8734L8.97314 10.0249ZM8.82344 9.66346V7.99679H7.62344V9.66346H8.82344ZM8.82344 7.99679C8.82344 7.86123 8.87729 7.73123 8.97314 7.63538L8.12462 6.78685C7.80372 7.10775 7.62344 7.54297 7.62344 7.99679L8.82344 7.99679ZM8.97314 7.63538C9.069 7.53953 9.199 7.48568 9.33455 7.48568V6.28568C8.88074 6.28568 8.44551 6.46596 8.12462 6.78685L8.97314 7.63538ZM9.33455 7.48568H11.0012V6.28568H9.33455V7.48568ZM10.4012 6.88568V9.66346H11.6012V6.88568H10.4012ZM0.401221 9.66346C0.401221 10.1173 0.581498 10.5525 0.902393 10.8734L1.75092 10.0249C1.65507 9.92901 1.60122 9.79901 1.60122 9.66346H0.401221ZM0.902393 10.8734C1.22329 11.1943 1.65852 11.3746 2.11233 11.3746V10.1746C1.97678 10.1746 1.84677 10.1207 1.75092 10.0249L0.902393 10.8734ZM2.11233 11.3746H2.66789V10.1746H2.11233V11.3746ZM2.66789 11.3746C3.1217 11.3746 3.55693 11.1943 3.87783 10.8734L3.0293 10.0249C2.93345 10.1207 2.80344 10.1746 2.66789 10.1746V11.3746ZM3.87783 10.8734C4.19872 10.5525 4.379 10.1173 4.379 9.66346H3.179C3.179 9.79901 3.12515 9.92901 3.0293 10.0249L3.87783 10.8734ZM4.379 9.66346V7.99679H3.179V9.66346H4.379ZM4.379 7.99679C4.379 7.54297 4.19872 7.10775 3.87783 6.78685L3.0293 7.63538C3.12515 7.73123 3.179 7.86123 3.179 7.99679L4.379 7.99679ZM3.87783 6.78685C3.55693 6.46596 3.1217 6.28568 2.66789 6.28568V7.48568C2.80344 7.48568 2.93345 7.53953 3.0293 7.63538L3.87783 6.78685ZM2.66789 6.28568H1.00122V7.48568H2.66789V6.28568ZM0.401221 6.88568V9.66346H1.60122V6.88568H0.401221Z" fill="#022C43"/>
</svg>
