<svg width="12" height="13" viewBox="0 0 12 13" fill="none" xmlns="http://www.w3.org/2000/svg">
<path d="M6.39602 3.50998C6.39602 3.17861 6.12739 2.90998 5.79602 2.90998C5.46465 2.90998 5.19602 3.17861 5.19602 3.50998H6.39602ZM5.79602 6.50998H5.19602C5.19602 6.73724 5.32442 6.945 5.52769 7.04664L5.79602 6.50998ZM7.52769 8.04664C7.82408 8.19483 8.18448 8.07469 8.33268 7.77831C8.48087 7.48192 8.36074 7.12152 8.06435 6.97332L7.52769 8.04664ZM10.196 6.50998C10.196 8.94003 8.22607 10.91 5.79602 10.91V12.11C8.88882 12.11 11.396 9.60277 11.396 6.50998H10.196ZM5.79602 10.91C3.36597 10.91 1.39602 8.94003 1.39602 6.50998H0.19602C0.19602 9.60277 2.70323 12.11 5.79602 12.11V10.91ZM1.39602 6.50998C1.39602 4.07993 3.36597 2.10998 5.79602 2.10998V0.909979C2.70323 0.909979 0.19602 3.41718 0.19602 6.50998H1.39602ZM5.79602 2.10998C8.22607 2.10998 10.196 4.07993 10.196 6.50998H11.396C11.396 3.41718 8.88882 0.909979 5.79602 0.909979V2.10998ZM5.19602 3.50998V6.50998H6.39602V3.50998H5.19602ZM5.52769 7.04664L7.52769 8.04664L8.06435 6.97332L6.06435 5.97332L5.52769 7.04664Z" fill="#022C43"/>
</svg>
