<svg width="43" height="43" viewBox="0 0 43 43" fill="none" xmlns="http://www.w3.org/2000/svg">
<path d="M16.4 27.65C16.4 28.2023 16.8477 28.65 17.4 28.65C17.9523 28.65 18.4 28.2023 18.4 27.65H16.4ZM18.4 15.35C18.4 14.7977 17.9523 14.35 17.4 14.35C16.8477 14.35 16.4 14.7977 16.4 15.35H18.4ZM24.6 27.65C24.6 28.2023 25.0477 28.65 25.6 28.65C26.1523 28.65 26.6 28.2023 26.6 27.65H24.6ZM26.6 15.35C26.6 14.7977 26.1523 14.35 25.6 14.35C25.0477 14.35 24.6 14.7977 24.6 15.35H26.6ZM41 21.5C41 32.2696 32.2696 41 21.5 41V43C33.3741 43 43 33.3741 43 21.5H41ZM21.5 41C10.7304 41 2 32.2696 2 21.5H0C0 33.3741 9.62588 43 21.5 43V41ZM2 21.5C2 10.7304 10.7304 2 21.5 2V0C9.62588 0 0 9.62588 0 21.5H2ZM21.5 2C32.2696 2 41 10.7304 41 21.5H43C43 9.62588 33.3741 0 21.5 0V2ZM18.4 27.65V15.35H16.4V27.65H18.4ZM26.6 27.65V15.35H24.6V27.65H26.6Z" fill="white"/>
</svg>
