<svg width="43" height="43" viewBox="0 0 43 43" fill="none" xmlns="http://www.w3.org/2000/svg">
<path d="M17.4 13.3L17.9547 12.4679C17.6478 12.2634 17.2533 12.2443 16.9281 12.4183C16.603 12.5923 16.4 12.9312 16.4 13.3H17.4ZM29.7 21.5L30.2547 22.332C30.5329 22.1466 30.7 21.8344 30.7 21.5C30.7 21.1656 30.5329 20.8534 30.2547 20.6679L29.7 21.5ZM17.4 29.7H16.4C16.4 30.0688 16.603 30.4077 16.9281 30.5817C17.2533 30.7557 17.6478 30.7366 17.9547 30.532L17.4 29.7ZM41 21.5C41 32.2696 32.2696 41 21.5 41V43C33.3741 43 43 33.3741 43 21.5H41ZM21.5 41C10.7304 41 2 32.2696 2 21.5H0C0 33.3741 9.62588 43 21.5 43V41ZM2 21.5C2 10.7304 10.7304 2 21.5 2V0C9.62588 0 0 9.62588 0 21.5H2ZM21.5 2C32.2696 2 41 10.7304 41 21.5H43C43 9.62588 33.3741 0 21.5 0V2ZM16.8453 14.1321L29.1453 22.332L30.2547 20.6679L17.9547 12.4679L16.8453 14.1321ZM29.1453 20.6679L16.8453 28.8679L17.9547 30.532L30.2547 22.332L29.1453 20.6679ZM18.4 29.7V13.3H16.4V29.7H18.4Z" fill="white"/>
</svg>
